<svg xmlns="http://www.w3.org/2000/svg" width="1440" height="800" fill="none" class=" absolute top-0 left-2/4" style="margin-left:-720px;z-index:1"><mask id="bg-spotlight_svg__b" width="1440" height="600" x="0" y="0" maskUnits="userSpaceOnUse" style="mask-type:alpha"><path fill="url(#bg-spotlight_svg__a)" d="M0 0h1440v600H0z"></path></mask><g mask="url(#bg-spotlight_svg__b)"><path stroke="#E6EAFF" d="M17-11.5h5v39h-5zM22-11.5h39v39H22zM61-11.5h39v39H61zM100-11.5h39v39h-39zM139-11.5h39v39h-39zM178-11.5h39v39h-39zM217-11.5h39v39h-39zM256-11.5h39v39h-39zM295-11.5h39v39h-39zM334-11.5h39v39h-39zM373-11.5h39v39h-39zM412-11.5h39v39h-39zM451-11.5h39v39h-39zM490-11.5h39v39h-39zM529-11.5h39v39h-39zM568-11.5h39v39h-39zM607-11.5h39v39h-39zM646-11.5h39v39h-39zM685-11.5h39v39h-39zM724-11.5h39v39h-39zM763-11.5h39v39h-39zM802-11.5h39v39h-39zM841-11.5h39v39h-39zM880-11.5h39v39h-39zM919-11.5h39v39h-39zM958-11.5h39v39h-39zM997-11.5h39v39h-39zM1036-11.5h39v39h-39zM1075-11.5h39v39h-39zM1114-11.5h39v39h-39zM1153-11.5h39v39h-39zM1192-11.5h39v39h-39zM1231-11.5h39v39h-39zM1270-11.5h39v39h-39zM1309-11.5h39v39h-39zM1348-11.5h39v39h-39zM1387-11.5h39v39h-39zM1426-11.5h29v39h-29zM17 27.5h5v39h-5zM22 27.5h39v39H22zM61 27.5h39v39H61zM100 27.5h39v39h-39zM139 27.5h39v39h-39zM178 27.5h39v39h-39zM217 27.5h39v39h-39zM256 27.5h39v39h-39zM295 27.5h39v39h-39zM334 27.5h39v39h-39zM373 27.5h39v39h-39zM412 27.5h39v39h-39zM451 27.5h39v39h-39zM490 27.5h39v39h-39zM529 27.5h39v39h-39zM568 27.5h39v39h-39zM607 27.5h39v39h-39zM646 27.5h39v39h-39zM685 27.5h39v39h-39zM724 27.5h39v39h-39zM763 27.5h39v39h-39zM802 27.5h39v39h-39zM841 27.5h39v39h-39zM880 27.5h39v39h-39zM919 27.5h39v39h-39zM958 27.5h39v39h-39zM997 27.5h39v39h-39zM1036 27.5h39v39h-39zM1075 27.5h39v39h-39zM1114 27.5h39v39h-39zM1153 27.5h39v39h-39zM1192 27.5h39v39h-39zM1231 27.5h39v39h-39zM1270 27.5h39v39h-39zM1309 27.5h39v39h-39zM1348 27.5h39v39h-39zM1387 27.5h39v39h-39zM1426 27.5h29v39h-29zM17 66.5h5v39h-5zM22 66.5h39v39H22zM61 66.5h39v39H61zM100 66.5h39v39h-39zM139 66.5h39v39h-39zM178 66.5h39v39h-39zM217 66.5h39v39h-39zM256 66.5h39v39h-39zM295 66.5h39v39h-39zM334 66.5h39v39h-39zM373 66.5h39v39h-39zM412 66.5h39v39h-39zM451 66.5h39v39h-39zM490 66.5h39v39h-39zM529 66.5h39v39h-39zM568 66.5h39v39h-39zM607 66.5h39v39h-39zM646 66.5h39v39h-39zM685 66.5h39v39h-39zM724 66.5h39v39h-39zM763 66.5h39v39h-39zM802 66.5h39v39h-39zM841 66.5h39v39h-39zM880 66.5h39v39h-39zM919 66.5h39v39h-39zM958 66.5h39v39h-39zM997 66.5h39v39h-39zM1036 66.5h39v39h-39zM1075 66.5h39v39h-39zM1114 66.5h39v39h-39zM1153 66.5h39v39h-39zM1192 66.5h39v39h-39zM1231 66.5h39v39h-39zM1270 66.5h39v39h-39zM1309 66.5h39v39h-39zM1348 66.5h39v39h-39zM1387 66.5h39v39h-39zM1426 66.5h29v39h-29zM17 105.5h5v39h-5zM22 105.5h39v39H22zM61 105.5h39v39H61zM100 105.5h39v39h-39zM139 105.5h39v39h-39zM178 105.5h39v39h-39zM217 105.5h39v39h-39zM256 105.5h39v39h-39zM295 105.5h39v39h-39zM334 105.5h39v39h-39zM373 105.5h39v39h-39zM412 105.5h39v39h-39zM451 105.5h39v39h-39zM490 105.5h39v39h-39zM529 105.5h39v39h-39zM568 105.5h39v39h-39zM607 105.5h39v39h-39zM646 105.5h39v39h-39zM685 105.5h39v39h-39zM724 105.5h39v39h-39zM763 105.5h39v39h-39zM802 105.5h39v39h-39zM841 105.5h39v39h-39zM880 105.5h39v39h-39zM919 105.5h39v39h-39zM958 105.5h39v39h-39zM997 105.5h39v39h-39zM1036 105.5h39v39h-39zM1075 105.5h39v39h-39zM1114 105.5h39v39h-39zM1153 105.5h39v39h-39zM1192 105.5h39v39h-39zM1231 105.5h39v39h-39zM1270 105.5h39v39h-39zM1309 105.5h39v39h-39zM1348 105.5h39v39h-39zM1387 105.5h39v39h-39zM1426 105.5h29v39h-29zM17 144.5h5v39h-5zM22 144.5h39v39H22zM61 144.5h39v39H61zM100 144.5h39v39h-39zM139 144.5h39v39h-39zM178 144.5h39v39h-39zM217 144.5h39v39h-39zM256 144.5h39v39h-39zM295 144.5h39v39h-39zM334 144.5h39v39h-39zM373 144.5h39v39h-39zM412 144.5h39v39h-39zM451 144.5h39v39h-39zM490 144.5h39v39h-39zM529 144.5h39v39h-39zM568 144.5h39v39h-39zM607 144.5h39v39h-39zM646 144.5h39v39h-39zM685 144.5h39v39h-39zM724 144.5h39v39h-39zM763 144.5h39v39h-39zM802 144.5h39v39h-39zM841 144.5h39v39h-39zM880 144.5h39v39h-39zM919 144.5h39v39h-39zM958 144.5h39v39h-39zM997 144.5h39v39h-39zM1036 144.5h39v39h-39zM1075 144.5h39v39h-39zM1114 144.5h39v39h-39zM1153 144.5h39v39h-39zM1192 144.5h39v39h-39zM1231 144.5h39v39h-39zM1270 144.5h39v39h-39zM1309 144.5h39v39h-39zM1348 144.5h39v39h-39zM1387 144.5h39v39h-39zM1426 144.5h29v39h-29zM17 183.5h5v39h-5zM22 183.5h39v39H22zM61 183.5h39v39H61zM100 183.5h39v39h-39zM139 183.5h39v39h-39zM178 183.5h39v39h-39zM217 183.5h39v39h-39zM256 183.5h39v39h-39zM295 183.5h39v39h-39zM334 183.5h39v39h-39zM373 183.5h39v39h-39zM412 183.5h39v39h-39zM451 183.5h39v39h-39zM490 183.5h39v39h-39zM529 183.5h39v39h-39zM568 183.5h39v39h-39zM607 183.5h39v39h-39zM646 183.5h39v39h-39zM685 183.5h39v39h-39zM724 183.5h39v39h-39zM763 183.5h39v39h-39zM802 183.5h39v39h-39zM841 183.5h39v39h-39zM880 183.5h39v39h-39zM919 183.5h39v39h-39zM958 183.5h39v39h-39zM997 183.5h39v39h-39zM1036 183.5h39v39h-39zM1075 183.5h39v39h-39zM1114 183.5h39v39h-39zM1153 183.5h39v39h-39zM1192 183.5h39v39h-39zM1231 183.5h39v39h-39zM1270 183.5h39v39h-39zM1309 183.5h39v39h-39zM1348 183.5h39v39h-39zM1387 183.5h39v39h-39zM1426 183.5h29v39h-29zM17 222.5h5v39h-5zM22 222.5h39v39H22zM61 222.5h39v39H61zM100 222.5h39v39h-39zM139 222.5h39v39h-39zM178 222.5h39v39h-39zM217 222.5h39v39h-39zM256 222.5h39v39h-39zM295 222.5h39v39h-39zM334 222.5h39v39h-39zM373 222.5h39v39h-39zM412 222.5h39v39h-39zM451 222.5h39v39h-39zM490 222.5h39v39h-39zM529 222.5h39v39h-39zM568 222.5h39v39h-39zM607 222.5h39v39h-39zM646 222.5h39v39h-39zM685 222.5h39v39h-39zM724 222.5h39v39h-39zM763 222.5h39v39h-39zM802 222.5h39v39h-39zM841 222.5h39v39h-39zM880 222.5h39v39h-39zM919 222.5h39v39h-39zM958 222.5h39v39h-39zM997 222.5h39v39h-39zM1036 222.5h39v39h-39zM1075 222.5h39v39h-39zM1114 222.5h39v39h-39zM1153 222.5h39v39h-39zM1192 222.5h39v39h-39zM1231 222.5h39v39h-39zM1270 222.5h39v39h-39zM1309 222.5h39v39h-39zM1348 222.5h39v39h-39zM1387 222.5h39v39h-39zM1426 222.5h29v39h-29zM17 261.5h5v39h-5zM22 261.5h39v39H22zM61 261.5h39v39H61zM100 261.5h39v39h-39zM139 261.5h39v39h-39zM178 261.5h39v39h-39zM217 261.5h39v39h-39zM256 261.5h39v39h-39zM295 261.5h39v39h-39zM334 261.5h39v39h-39zM373 261.5h39v39h-39zM412 261.5h39v39h-39zM451 261.5h39v39h-39zM490 261.5h39v39h-39zM529 261.5h39v39h-39zM568 261.5h39v39h-39zM607 261.5h39v39h-39zM646 261.5h39v39h-39zM685 261.5h39v39h-39zM724 261.5h39v39h-39zM763 261.5h39v39h-39zM802 261.5h39v39h-39zM841 261.5h39v39h-39zM880 261.5h39v39h-39zM919 261.5h39v39h-39zM958 261.5h39v39h-39zM997 261.5h39v39h-39zM1036 261.5h39v39h-39zM1075 261.5h39v39h-39zM1114 261.5h39v39h-39zM1153 261.5h39v39h-39zM1192 261.5h39v39h-39zM1231 261.5h39v39h-39zM1270 261.5h39v39h-39zM1309 261.5h39v39h-39zM1348 261.5h39v39h-39zM1387 261.5h39v39h-39zM1426 261.5h29v39h-29zM17 300.5h5v39h-5zM22 300.5h39v39H22zM61 300.5h39v39H61zM100 300.5h39v39h-39zM139 300.5h39v39h-39zM178 300.5h39v39h-39zM217 300.5h39v39h-39zM256 300.5h39v39h-39zM295 300.5h39v39h-39zM334 300.5h39v39h-39zM373 300.5h39v39h-39zM412 300.5h39v39h-39zM451 300.5h39v39h-39zM490 300.5h39v39h-39zM529 300.5h39v39h-39zM568 300.5h39v39h-39zM607 300.5h39v39h-39zM646 300.5h39v39h-39zM685 300.5h39v39h-39zM724 300.5h39v39h-39zM763 300.5h39v39h-39zM802 300.5h39v39h-39zM841 300.5h39v39h-39zM880 300.5h39v39h-39zM919 300.5h39v39h-39zM958 300.5h39v39h-39zM997 300.5h39v39h-39zM1036 300.5h39v39h-39zM1075 300.5h39v39h-39zM1114 300.5h39v39h-39zM1153 300.5h39v39h-39zM1192 300.5h39v39h-39zM1231 300.5h39v39h-39zM1270 300.5h39v39h-39zM1309 300.5h39v39h-39zM1348 300.5h39v39h-39zM1387 300.5h39v39h-39zM1426 300.5h29v39h-29zM17 339.5h5v39h-5zM22 339.5h39v39H22zM61 339.5h39v39H61zM100 339.5h39v39h-39zM139 339.5h39v39h-39zM178 339.5h39v39h-39zM217 339.5h39v39h-39zM256 339.5h39v39h-39zM295 339.5h39v39h-39zM334 339.5h39v39h-39zM373 339.5h39v39h-39zM412 339.5h39v39h-39zM451 339.5h39v39h-39zM490 339.5h39v39h-39zM529 339.5h39v39h-39zM568 339.5h39v39h-39zM607 339.5h39v39h-39zM646 339.5h39v39h-39zM685 339.5h39v39h-39zM724 339.5h39v39h-39zM763 339.5h39v39h-39zM802 339.5h39v39h-39zM841 339.5h39v39h-39zM880 339.5h39v39h-39zM919 339.5h39v39h-39zM958 339.5h39v39h-39zM997 339.5h39v39h-39zM1036 339.5h39v39h-39zM1075 339.5h39v39h-39zM1114 339.5h39v39h-39zM1153 339.5h39v39h-39zM1192 339.5h39v39h-39zM1231 339.5h39v39h-39zM1270 339.5h39v39h-39zM1309 339.5h39v39h-39zM1348 339.5h39v39h-39zM1387 339.5h39v39h-39zM1426 339.5h29v39h-29zM17 378.5h5v39h-5zM22 378.5h39v39H22zM61 378.5h39v39H61zM100 378.5h39v39h-39zM139 378.5h39v39h-39zM178 378.5h39v39h-39zM217 378.5h39v39h-39zM256 378.5h39v39h-39zM295 378.5h39v39h-39zM334 378.5h39v39h-39zM373 378.5h39v39h-39zM412 378.5h39v39h-39zM451 378.5h39v39h-39zM490 378.5h39v39h-39zM529 378.5h39v39h-39zM568 378.5h39v39h-39zM607 378.5h39v39h-39zM646 378.5h39v39h-39zM685 378.5h39v39h-39zM724 378.5h39v39h-39zM763 378.5h39v39h-39zM802 378.5h39v39h-39zM841 378.5h39v39h-39zM880 378.5h39v39h-39zM919 378.5h39v39h-39zM958 378.5h39v39h-39zM997 378.5h39v39h-39zM1036 378.5h39v39h-39zM1075 378.5h39v39h-39zM1114 378.5h39v39h-39zM1153 378.5h39v39h-39zM1192 378.5h39v39h-39zM1231 378.5h39v39h-39zM1270 378.5h39v39h-39zM1309 378.5h39v39h-39zM1348 378.5h39v39h-39zM1387 378.5h39v39h-39zM1426 378.5h29v39h-29zM17 417.5h5v39h-5zM22 417.5h39v39H22zM61 417.5h39v39H61zM100 417.5h39v39h-39zM139 417.5h39v39h-39zM178 417.5h39v39h-39zM217 417.5h39v39h-39zM256 417.5h39v39h-39zM295 417.5h39v39h-39zM334 417.5h39v39h-39zM373 417.5h39v39h-39zM412 417.5h39v39h-39zM451 417.5h39v39h-39zM490 417.5h39v39h-39zM529 417.5h39v39h-39zM568 417.5h39v39h-39zM607 417.5h39v39h-39zM646 417.5h39v39h-39zM685 417.5h39v39h-39zM724 417.5h39v39h-39zM763 417.5h39v39h-39zM802 417.5h39v39h-39zM841 417.5h39v39h-39zM880 417.5h39v39h-39zM919 417.5h39v39h-39zM958 417.5h39v39h-39zM997 417.5h39v39h-39zM1036 417.5h39v39h-39zM1075 417.5h39v39h-39zM1114 417.5h39v39h-39zM1153 417.5h39v39h-39zM1192 417.5h39v39h-39zM1231 417.5h39v39h-39zM1270 417.5h39v39h-39zM1309 417.5h39v39h-39zM1348 417.5h39v39h-39zM1387 417.5h39v39h-39zM1426 417.5h29v39h-29zM17 456.5h5v39h-5zM22 456.5h39v39H22zM61 456.5h39v39H61zM100 456.5h39v39h-39zM139 456.5h39v39h-39zM178 456.5h39v39h-39zM217 456.5h39v39h-39zM256 456.5h39v39h-39zM295 456.5h39v39h-39zM334 456.5h39v39h-39zM373 456.5h39v39h-39zM412 456.5h39v39h-39zM451 456.5h39v39h-39zM490 456.5h39v39h-39zM529 456.5h39v39h-39zM568 456.5h39v39h-39zM607 456.5h39v39h-39zM646 456.5h39v39h-39zM685 456.5h39v39h-39zM724 456.5h39v39h-39zM763 456.5h39v39h-39zM802 456.5h39v39h-39zM841 456.5h39v39h-39zM880 456.5h39v39h-39zM919 456.5h39v39h-39zM958 456.5h39v39h-39zM997 456.5h39v39h-39zM1036 456.5h39v39h-39zM1075 456.5h39v39h-39zM1114 456.5h39v39h-39zM1153 456.5h39v39h-39zM1192 456.5h39v39h-39zM1231 456.5h39v39h-39zM1270 456.5h39v39h-39zM1309 456.5h39v39h-39zM1348 456.5h39v39h-39zM1387 456.5h39v39h-39zM1426 456.5h29v39h-29zM17 495.5h5v39h-5zM22 495.5h39v39H22zM61 495.5h39v39H61zM100 495.5h39v39h-39zM139 495.5h39v39h-39zM178 495.5h39v39h-39zM217 495.5h39v39h-39zM256 495.5h39v39h-39zM295 495.5h39v39h-39zM334 495.5h39v39h-39zM373 495.5h39v39h-39zM412 495.5h39v39h-39zM451 495.5h39v39h-39zM490 495.5h39v39h-39zM529 495.5h39v39h-39zM568 495.5h39v39h-39zM607 495.5h39v39h-39zM646 495.5h39v39h-39zM685 495.5h39v39h-39zM724 495.5h39v39h-39zM763 495.5h39v39h-39zM802 495.5h39v39h-39zM841 495.5h39v39h-39zM880 495.5h39v39h-39zM919 495.5h39v39h-39zM958 495.5h39v39h-39zM997 495.5h39v39h-39zM1036 495.5h39v39h-39zM1075 495.5h39v39h-39zM1114 495.5h39v39h-39zM1153 495.5h39v39h-39zM1192 495.5h39v39h-39zM1231 495.5h39v39h-39zM1270 495.5h39v39h-39zM1309 495.5h39v39h-39zM1348 495.5h39v39h-39zM1387 495.5h39v39h-39zM1426 495.5h29v39h-29zM17 534.5h5v39h-5zM22 534.5h39v39H22zM61 534.5h39v39H61zM100 534.5h39v39h-39zM139 534.5h39v39h-39zM178 534.5h39v39h-39zM217 534.5h39v39h-39zM256 534.5h39v39h-39zM295 534.5h39v39h-39zM334 534.5h39v39h-39zM373 534.5h39v39h-39zM412 534.5h39v39h-39zM451 534.5h39v39h-39zM490 534.5h39v39h-39zM529 534.5h39v39h-39zM568 534.5h39v39h-39zM607 534.5h39v39h-39zM646 534.5h39v39h-39zM685 534.5h39v39h-39zM724 534.5h39v39h-39zM763 534.5h39v39h-39zM802 534.5h39v39h-39zM841 534.5h39v39h-39zM880 534.5h39v39h-39zM919 534.5h39v39h-39zM958 534.5h39v39h-39zM997 534.5h39v39h-39zM1036 534.5h39v39h-39zM1075 534.5h39v39h-39zM1114 534.5h39v39h-39zM1153 534.5h39v39h-39zM1192 534.5h39v39h-39zM1231 534.5h39v39h-39zM1270 534.5h39v39h-39zM1309 534.5h39v39h-39zM1348 534.5h39v39h-39zM1387 534.5h39v39h-39zM1426 534.5h29v39h-29zM17 573.5h5v39h-5zM22 573.5h39v39H22zM61 573.5h39v39H61zM100 573.5h39v39h-39zM139 573.5h39v39h-39zM178 573.5h39v39h-39zM217 573.5h39v39h-39zM256 573.5h39v39h-39zM295 573.5h39v39h-39zM334 573.5h39v39h-39zM373 573.5h39v39h-39zM412 573.5h39v39h-39zM451 573.5h39v39h-39zM490 573.5h39v39h-39zM529 573.5h39v39h-39zM568 573.5h39v39h-39zM607 573.5h39v39h-39zM646 573.5h39v39h-39zM685 573.5h39v39h-39zM724 573.5h39v39h-39zM763 573.5h39v39h-39zM802 573.5h39v39h-39zM841 573.5h39v39h-39zM880 573.5h39v39h-39zM919 573.5h39v39h-39zM958 573.5h39v39h-39zM997 573.5h39v39h-39zM1036 573.5h39v39h-39zM1075 573.5h39v39h-39zM1114 573.5h39v39h-39zM1153 573.5h39v39h-39zM1192 573.5h39v39h-39zM1231 573.5h39v39h-39zM1270 573.5h39v39h-39zM1309 573.5h39v39h-39zM1348 573.5h39v39h-39zM1387 573.5h39v39h-39zM1426 573.5h29v39h-29z"></path><ellipse cx="728" cy="428" fill="url(#bg-spotlight_svg__c)" rx="345" ry="99" transform="rotate(-180 728 428)"></ellipse><ellipse cx="705" cy="6.5" fill="url(#bg-spotlight_svg__d)" rx="399" ry="141.5"></ellipse></g><defs><radialGradient id="bg-spotlight_svg__a" cx="0" cy="0" r="1" gradientTransform="matrix(0 369.706 -887.294 0 720 300)" gradientUnits="userSpaceOnUse"><stop stop-color="#D9D9D9"></stop><stop offset="1" stop-color="#D9D9D9" stop-opacity="0"></stop></radialGradient><radialGradient id="bg-spotlight_svg__c" cx="0" cy="0" r="1" gradientTransform="matrix(0 99 -345 0 728 428)" gradientUnits="userSpaceOnUse"><stop stop-color="#fff"></stop><stop offset="1" stop-color="#fff" stop-opacity="0"></stop></radialGradient><radialGradient id="bg-spotlight_svg__d" cx="0" cy="0" r="1" gradientTransform="matrix(0 141.5 -399 0 705 6.5)" gradientUnits="userSpaceOnUse"><stop stop-color="#fff"></stop><stop offset="1" stop-color="#fff" stop-opacity="0"></stop></radialGradient></defs></svg>